<?xml version="1.0" encoding="utf-8"?>
<!-- Generator: Adobe Illustrator 26.2.0, SVG Export Plug-In . SVG Version: 6.00 Build 0)  -->
<svg version="1.1" id="Calque_1" xmlns="http://www.w3.org/2000/svg" xmlns:xlink="http://www.w3.org/1999/xlink" x="0px" y="0px"
	 viewBox="0 0 612 792" style="enable-background:new 0 0 612 792;" xml:space="preserve">
<style type="text/css">
	.st0{fill:none;stroke:#000000;stroke-width:3;stroke-miterlimit:10;}
	.st1{fill:none;stroke:#000000;stroke-width:2;stroke-miterlimit:10;}
	.st2{stroke:#000000;stroke-miterlimit:10;}
</style>
<g>
	
		<rect x="268" y="413.13" transform="matrix(0.9853 -0.1707 0.1707 0.9853 -67.1347 60.6995)" class="st0" width="102.89" height="15.32"/>
	
		<ellipse transform="matrix(0.9853 -0.1707 0.1707 0.9853 -69.9802 49.9421)" class="st1" cx="255.46" cy="431.96" rx="0.81" ry="8.27"/>
	
		<ellipse transform="matrix(0.9853 -0.1707 0.1707 0.9853 -69.6752 51.1012)" class="st1" cx="262.36" cy="430.77" rx="0.81" ry="8.27"/>
</g>
<path class="st0" d="M257.17,415.03c-2.63-7.58-1.58-11.72,0.01-14.12c2.75-4.14,7.31-3.43,13.4-8.67c1.21-1.04,4.74-4.27,7.18-9.41
	c4.12-8.68,2.56-17.47,1.53-23.33c-0.54-3.06-1.24-5.51-1.75-7.08"/>
<path class="st0" d="M246.58,397.3c-1.2-2.63-2.31-6.32-0.9-9.69c1.22-2.9,3.39-3.36,3.66-5.82c0.34-3.09-2.86-4.77-5.26-8.68
	c-1.58-2.58-3.07-6.54-2.7-12.62"/>
<path class="st0" d="M260.3,386.44c1.9-2.8,2.47-5.23,2.57-7.1c0.12-2.12-0.34-4.06-1.04-6.99c-0.72-3.04-1.49-4.88-0.96-7.52
	c0.18-0.91,0.46-1.63,0.67-2.1"/>
<path class="st2" d="M260.64,362.31c-0.15,0.48-0.18,1.07,0.61,1.32c0.79,0.25,1.05-0.07,1.2-0.55s0.14-0.95-0.65-1.2
	S260.79,361.82,260.64,362.31z"/>
<path class="st2" d="M259.45,385.99c-0.25,0.44-0.17,0.93,0.55,1.33c0.72,0.4,1.01,0.13,1.25-0.31c0.25-0.44,0.36-0.89-0.36-1.29
	C260.18,385.31,259.7,385.54,259.45,385.99z"/>
<path class="st2" d="M276.53,352.42c0.14,0.49,0.47,1.05,1.26,0.82c0.79-0.23,0.83-0.77,0.68-1.25c-0.14-0.49-0.41-0.74-1.2-0.51
	C276.47,351.71,276.39,351.94,276.53,352.42z"/>
<path class="st2" d="M256.17,415.22c0.14,0.49,0.45,0.92,1.25,0.7c0.8-0.23,0.83-0.74,0.69-1.23c-0.14-0.49-0.4-0.77-1.19-0.54
	S256.03,414.73,256.17,415.22z"/>
<path class="st2" d="M245.64,397.56c0.19,0.47,0.3,0.9,1.07,0.6s0.97-0.83,0.78-1.3c-0.19-0.47-0.69-0.72-1.46-0.41
	S245.45,397.09,245.64,397.56z"/>
<path class="st2" d="M240.36,360.29c-0.04,0.51,0.12,1,0.94,1.07c0.82,0.07,1.02-0.34,1.06-0.85c0.04-0.51-0.08-0.92-0.91-0.98
	C240.63,359.45,240.41,359.78,240.36,360.29z"/>
</svg>
