<?xml version="1.0" encoding="utf-8"?>
<!-- Generator: Adobe Illustrator 26.2.0, SVG Export Plug-In . SVG Version: 6.00 Build 0)  -->
<svg version="1.1" id="Calque_1" xmlns="http://www.w3.org/2000/svg" xmlns:xlink="http://www.w3.org/1999/xlink" x="0px" y="0px"
	 viewBox="0 0 612 792" style="enable-background:new 0 0 612 792;" xml:space="preserve">
<style type="text/css">
	.st0{fill:none;stroke:lightblue;stroke-width:7;stroke-miterlimit:10;}
</style>
<g>
	<path class="st0" d="M302.61,281.68c-1.07,0.69-2.85,1.75-3.26,4.75c-0.09,0.66-0.58,2.91,1.55,4.75c1.7,1.47,3.49,1.23,5.2,0.55
		c2.08-0.83,2.77-1.64,3.37-2.93c1.09-2.35,0.64-5-1.66-6.69C305.45,280.4,303.02,281.41,302.61,281.68z"/>
	<path class="st0" d="M313.4,520.81c-1.07,0.69-2.85,1.75-3.26,4.75c-0.09,0.66-0.58,2.91,1.55,4.75c1.7,1.47,3.49,1.23,5.2,0.55
		c2.08-0.83,2.77-1.64,3.37-2.93c1.09-2.35,0.64-5-1.66-6.69C316.25,519.53,313.82,520.54,313.4,520.81z"/>
	<path class="st0" d="M192.03,403.7c-1.07,0.69-2.85,1.75-3.26,4.75c-0.09,0.66-0.58,2.91,1.55,4.75c1.7,1.47,3.49,1.23,5.2,0.55
		c2.08-0.83,2.77-1.64,3.37-2.93c1.09-2.35,0.64-5-1.66-6.69C194.87,402.42,192.44,403.43,192.03,403.7z"/>
	<path class="st0" d="M425.16,403.7c-1.07,0.69-2.85,1.75-3.26,4.75c-0.09,0.66-0.58,2.91,1.55,4.75c1.7,1.47,3.49,1.23,5.2,0.55
		c2.08-0.83,2.77-1.64,3.37-2.93c1.09-2.35,0.64-5-1.66-6.69C428.01,402.42,425.57,403.43,425.16,403.7z"/>
	<path class="st0" d="M388.34,321.89c-1.07,0.69-2.85,1.75-3.26,4.75c-0.09,0.66-0.58,2.91,1.55,4.75c1.7,1.47,3.49,1.23,5.2,0.55
		c2.08-0.83,2.77-1.64,3.37-2.93c1.09-2.35,0.64-5-1.66-6.69C391.19,320.62,388.76,321.63,388.34,321.89z"/>
	<path class="st0" d="M221.56,333.03c-1.07,0.69-2.85,1.75-3.26,4.75c-0.09,0.66-0.58,2.91,1.55,4.75c1.7,1.47,3.49,1.23,5.2,0.55
		c2.08-0.83,2.77-1.64,3.37-2.93c1.09-2.35,0.64-5-1.66-6.69C224.41,331.75,221.98,332.76,221.56,333.03z"/>
	<path class="st0" d="M232.35,481.4c-1.07,0.69-2.85,1.75-3.26,4.75c-0.09,0.66-0.58,2.91,1.55,4.75c1.7,1.47,3.49,1.23,5.2,0.55
		c2.08-0.83,2.77-1.64,3.37-2.93c1.09-2.35,0.64-5-1.66-6.69C235.2,480.12,232.77,481.13,232.35,481.4z"/>
	<path class="st0" d="M309.02,404.77c-0.84,0.54-2.24,1.38-2.56,3.74c-0.07,0.52-0.46,2.29,1.22,3.74c1.34,1.16,2.74,0.97,4.08,0.43
		c1.63-0.65,2.18-1.29,2.65-2.3c0.86-1.85,0.5-3.93-1.3-5.26C311.26,403.77,309.35,404.56,309.02,404.77z"/>
	<path class="st0" d="M384.29,273.53c13.5,8.24,35.08,27.21,37.56,29.64c7.58,7.41,20.28,26.66,29.5,50.29
		c11.55,29.6,8.94,55.29,7.61,67.08c-1.37,12.08-6.55,57.91-44.24,93.25c-36.08,33.82-89.17,46.08-137.49,32.83
		c-48.53-13.31-85.55-50.5-100.38-94.67C152.87,380.55,191.1,303.61,244.4,274c28.07-15.6,58.37-16.98,68.03-17.13
		c34.38-0.53,60.32,10.71,72.79,17.13"/>
	<path class="st0" d="M392.18,472.89c-1.07,0.69-2.85,1.75-3.26,4.75c-0.09,0.66-0.58,2.91,1.55,4.75c1.7,1.47,3.49,1.23,5.2,0.55
		c2.08-0.83,2.77-1.64,3.37-2.93c1.09-2.35,0.64-5-1.66-6.69C395.02,471.61,392.59,472.62,392.18,472.89z"/>
	<path class="st0" d="M287.01,326.92c1.83,15.57,8.08,33.66,13.42,52.45c2.5,8.8,4.9,16.59,7.76,24.28"/>
	<path class="st0" d="M315.89,411.69c15.79,3.2,35.16,4.97,58.35,4.12c3.05-0.11,5.98-0.81,8.84-1.33"/>
</g>
</svg>
