<?xml version="1.0" encoding="utf-8"?>
<!-- Generator: Adobe Illustrator 26.2.0, SVG Export Plug-In . SVG Version: 6.00 Build 0)  -->
<svg version="1.1" id="Calque_1" xmlns="http://www.w3.org/2000/svg" xmlns:xlink="http://www.w3.org/1999/xlink" x="0px" y="0px"
	 viewBox="0 0 612 792" style="enable-background:new 0 0 612 792;" xml:space="preserve">
<style type="text/css">
	.st0{fill:none;stroke:#000000;stroke-width:3;stroke-miterlimit:10;}
</style>
<g>
	<path class="st0" d="M158.62,505.95c-1.69-3.1-7.91-14.54-13.69-29.21c-5.16-13.11-7.74-19.66-9.12-28.38
		c-1.4-8.86-3.88-24.6,4.05-41.55c1.2-2.57,8.16-16.94,23.81-26.35c4.84-2.91,10.83-4.81,22.8-8.61c13.39-4.25,18.63-4.4,25.27-3.61
		c4.16,0.49,3.56-0.99,22.86,5.13c7.19,2.28,10.09,3.04,14.19,5.57c4.87,3.02,7.8,6.31,11.15,10.13c3.27,3.74,8.37,9.64,12.67,18.75
		c1.68,3.56,6.98,15.52,7.09,31.92c0.05,7.72-1.06,13.85-2.03,18.24c-6.64,30.08-15.82,57.45-49.15,98.81
		c-11.65,14.45-15.92,22.58-19.25,23.31c-6.91,1.51-36.96-52.01-51.18-74.99"/>
	<path class="st0" d="M207.51,395.16c-6.8,1.05-12.85,3.69-21.79,10.89c-4.61,3.72-5.94,7.08-8.36,11.4
		c-4.24,7.57-3.75,15.11-3.55,17.73c0.12,1.51,0.63,6.72,3.55,12.67c1,2.03,9.93,19.47,28.63,21.53c11.2,1.23,19.85-3.72,23.05-5.83
		c12.5-8.23,19.39-24.11,16.47-38.76c-1.95-9.8-7.67-15.95-9.63-17.99C233.98,404.83,222.17,392.91,207.51,395.16z"/>
	<path class="st0" d="M365.51,379.82c-1.1-2.02-5.15-9.47-8.91-19.02c-3.36-8.53-5.04-12.8-5.94-18.48
		c-0.91-5.77-2.53-16.02,2.64-27.05c0.78-1.67,5.32-11.03,15.51-17.16c3.15-1.89,7.05-3.13,14.85-5.61
		c8.72-2.77,12.13-2.86,16.45-2.35c2.71,0.32,2.32-0.64,14.89,3.34c4.68,1.48,6.57,1.98,9.24,3.63c3.17,1.97,5.08,4.11,7.26,6.6
		c2.13,2.43,5.45,6.28,8.25,12.21c1.09,2.31,4.54,10.11,4.62,20.78c0.04,5.03-0.69,9.02-1.32,11.88c-4.32,19.59-10.3,37.41-32,64.33
		c-7.58,9.41-10.36,14.7-12.54,15.18c-4.5,0.98-24.07-33.87-33.32-48.83"/>
	<path class="st0" d="M397.34,307.68c-4.43,0.68-8.37,2.4-14.19,7.09c-3,2.42-3.87,4.61-5.44,7.42c-2.76,4.93-2.44,9.84-2.31,11.55
		c0.08,0.98,0.41,4.38,2.31,8.25c0.65,1.32,6.46,12.68,18.64,14.02c7.29,0.8,12.92-2.42,15.01-3.79
		c8.14-5.36,12.62-15.7,10.72-25.24c-1.27-6.38-5-10.38-6.27-11.71C414.58,313.98,406.88,306.22,397.34,307.68z"/>
	<path class="st0" d="M398.49,428.1c-10.43,12.13-22.15,22.04-29.6,25.08c-18.99,7.74-28.88,0.76-50.92,9.12
		c-2.62,0.99-25.85,7.04-28.12,20.52c-3.07,18.21,30.26,30.84,31.16,49.4c0.75,15.43-2.47,28.88-23.56,31.16
		c-11.91,1.29-20.34,1.31-38.76,4.56c-11.91,2.1-29.06,3.57-49.4,12.16"/>
</g>
</svg>
