<svg width="63" height="42" viewBox="0 0 63 42" fill="none" xmlns="http://www.w3.org/2000/svg">
<g filter="url(#filter0_d_221_578)">
<path d="M4.47495 6.39582L10.2357 12.182L16.0219 6.42129L10.2612 0.635067L4.47495 6.39582ZM58.1988 27.6531L52.438 21.8669L46.6518 27.6277L52.4125 33.4139L58.1988 27.6531ZM10.2462 7.40855L47.2092 7.49007L47.2136 5.49007L10.2506 5.40856L10.2462 7.40855ZM47.1908 15.8522L11.5348 15.7735L11.5304 17.7735L47.1864 17.8522L47.1908 15.8522ZM11.5066 28.5501L52.4231 28.6404L52.4275 26.6404L11.511 26.5501L11.5066 28.5501ZM5.13239 22.1795C5.14211 25.6953 7.99083 28.5424 11.5066 28.5501L11.511 26.5501C9.09592 26.5448 7.13906 24.5891 7.13238 22.174L5.13239 22.1795ZM11.5348 15.7735C7.99419 15.7657 5.12259 18.639 5.13239 22.1795L7.13238 22.174C7.12565 19.7419 9.09823 17.7682 11.5304 17.7735L11.5348 15.7735ZM51.3811 11.6596C51.3875 13.9768 49.508 15.8573 47.1908 15.8522L47.1864 17.8522C50.6121 17.8597 53.3905 15.0797 53.381 11.654L51.3811 11.6596ZM47.2092 7.49007C49.5102 7.49514 51.3747 9.35854 51.3811 11.6596L53.381 11.654C53.3716 8.25232 50.6153 5.49757 47.2136 5.49007L47.2092 7.49007Z" fill="#424C9B"/>
</g>
<defs>
<filter id="filter0_d_221_578" x="0.474609" y="0.63501" width="61.7246" height="40.7788" filterUnits="userSpaceOnUse" color-interpolation-filters="sRGB">
<feFlood flood-opacity="0" result="BackgroundImageFix"/>
<feColorMatrix in="SourceAlpha" type="matrix" values="0 0 0 0 0 0 0 0 0 0 0 0 0 0 0 0 0 0 127 0" result="hardAlpha"/>
<feOffset dy="4"/>
<feGaussianBlur stdDeviation="2"/>
<feComposite in2="hardAlpha" operator="out"/>
<feColorMatrix type="matrix" values="0 0 0 0 0 0 0 0 0 0 0 0 0 0 0 0 0 0 0.25 0"/>
<feBlend mode="normal" in2="BackgroundImageFix" result="effect1_dropShadow_221_578"/>
<feBlend mode="normal" in="SourceGraphic" in2="effect1_dropShadow_221_578" result="shape"/>
</filter>
</defs>
</svg>
