<svg width="322" height="50" viewBox="0 0 322 50" fill="none" xmlns="http://www.w3.org/2000/svg">
<path d="M22.8483 5.8495L28.571 11.6733L34.3948 5.95058L28.6721 0.126762L22.8483 5.8495ZM321.502 43.4549L315.779 37.631L309.956 43.3538L315.678 49.1776L321.502 43.4549ZM10.4476 40.7318L10.4389 41.7318L10.4476 40.7318ZM10.6038 22.8947L10.6125 21.8947L10.6038 22.8947ZM305.878 25.4796L305.887 24.4796L305.878 25.4796ZM28.6128 6.9L306.019 9.32847L306.037 7.32855L28.6303 4.90008L28.6128 6.9ZM305.887 24.4796L10.6125 21.8947L10.595 23.8947L305.869 26.4796L305.887 24.4796ZM10.4389 41.7318L315.72 44.4043L315.738 42.4044L10.4564 39.7319L10.4389 41.7318ZM0.616817 32.2588C0.853578 37.5247 5.16784 41.6856 10.4389 41.7318L10.4564 39.7319C6.24817 39.695 2.80382 36.3731 2.6148 32.1689L0.616817 32.2588ZM10.6125 21.8947C4.92558 21.8449 0.361374 26.5773 0.616817 32.2588L2.6148 32.1689C2.41086 27.6331 6.05476 23.8549 10.595 23.8947L10.6125 21.8947ZM313.521 16.5637C313.716 20.9031 310.23 24.5177 305.887 24.4796L305.869 26.4796C311.359 26.5276 315.766 21.9589 315.519 16.4739L313.521 16.5637ZM306.019 9.32847C310.045 9.36371 313.34 12.5417 313.521 16.5637L315.519 16.4739C315.29 11.3901 311.125 7.37309 306.037 7.32855L306.019 9.32847Z" fill="#424C9B"/>
</svg>
