<?xml version="1.0" encoding="utf-8"?>
<!-- Generator: Adobe Illustrator 26.2.0, SVG Export Plug-In . SVG Version: 6.00 Build 0)  -->
<svg version="1.1" id="Calque_1" xmlns="http://www.w3.org/2000/svg" xmlns:xlink="http://www.w3.org/1999/xlink" x="0px" y="0px"
	 viewBox="0 0 612 792" style="enable-background:new 0 0 612 792;" xml:space="preserve">
<style type="text/css">
	.st0{fill:none;stroke:#000000;stroke-width:3;stroke-miterlimit:10;}
</style>
<g>
	<path class="st0" d="M241.37,278.55c-20.1,3.9-26.8,10.21-33.59,27.18c-5.93,14.8-3.88,20.26-4.91,29.82
		c-1.2,11.18-2.36,22.94,0.75,37.74c2.57,12.21,5.44,25.82,17.36,34.72c8.05,6.01,16.5,7.1,20.38,7.55
		c18.3,2.13,32.32-7.37,39.25-12.08c12.13-8.23,18.73-18.01,21.14-21.89c8.78-14.12,7.8-18.88,9.06-31.71
		c1.43-14.49-0.66-29.72-9.06-48.69c-3.16-7.15-11.35-19.46-27.58-23.24C271.79,277.4,271.73,272.67,241.37,278.55z"/>
	<path class="st0" d="M239.1,415.56c-16.46,4.11-42.56,15.72-52.09,19.63c-23.4,9.59-28.44,15.35-30.95,18.87
		c-4.48,6.29-5.82,13.08-8.3,26.42c-5.07,27.19-3.93,29.81-3.77,36.23c0.25,10.07,1.48,14.76,1.89,16.23
		c1.7,6.12,4.82,17.36,12.83,21.14c8.77,4.13,22.38-1.16,32.41-13.49"/>
	<path class="st0" d="M345.54,498.6"/>
	<path class="st0" d="M263.12,413.34c4.43,2.95,23.38,5.97,32.98,9.34c23.67,8.32,28.99,9.28,35.86,17.79
		c4.87,6.03,6.52,14.84,9.81,32.46c1.92,10.26,7.38,34.7,7.54,35.46c0,0,0,0.01,0,0.02c1.38,6.28-2.51,13.42-6.42,16.61
		c-6.34,5.17-19.72,4.78-28.33-3.4"/>
	<path class="st0" d="M305.59,425.99c-0.56-2.95-1.72-17.68,5.22-26.09c3.79-4.59,8.6-6.4,14.15-8.49
		c8.82-3.32,13.54-3.76,24.34-5.66c17.1-3.02,21.33-6.77,31.99-6.32c6.4,0.27,1.12-0.05,17.83,3.68c2.45,0.55,6.48,1.39,12.08,3.02
		c5.69,1.65,5.41,1.91,9.44,3.02c10.1,2.79,12.66,1.41,16.98,4.15c3.9,2.47,5.66,6.02,7.17,9.06c2,4.03,3.01,8.36,3.02,24.16
		c0,4.41-0.07,10.18-0.38,16.98"/>
	<path class="st0" d="M425.75,323.01c0.04,10.13-2.18,17.56-2.83,19.63c-1.59,5.06-4.61,14.12-12.46,22.08
		c-8.54,8.66-24.57,16.84-37.93,11.32c-6.26-2.58-9.54-5.73-12.27-8.1c-16.28-14.11-16.26-42.13-12.83-60.01
		c2.17-11.32,2.88-19.85,16.23-27.76c2.86-1.7,16.25-10.37,32.08-6.04c11.86,3.25,18.36,11.91,20.76,15.1
		C425.67,301.43,425.72,314.99,425.75,323.01z"/>
	<path class="st0" d="M201.68,535.32c-4.4-12.61-0.48-23.42,3.71-34.94c2.81-7.73,4.5-12.36,7.16-16.18
		c1.63-2.34,4.75-6.75,10.16-10.47c6.78-4.65,13.27-5.42,20.41-6.51c6.08-0.93,15.48-2.27,26.59,1.18c4.21,1.31,12,3.82,18.55,10.66
		c5.51,5.75,7.23,11.5,10.51,22.5c3.51,11.77,5.27,17.66,4.33,24.28c-2.26,15.88-15.47,25.45-17.93,27.24
		c-12.66,9.17-26.22,9.36-35.25,9.48c-9.42,0.12-22.31,0.3-34.01-8.29C213.2,552.28,205.43,546.07,201.68,535.32z"/>
	<path class="st0" d="M201.34,518.14c1.68-1.23,14.32-9.61,27.37-6.3c2.22,0.56,7.88,2.07,12.44,6.97c2.3,2.47,4.75,6.25,7.96,26.37
		c0.95,5.95,1.58,12.42,1.99,15.92"/>
	<path class="st0" d="M270.51,559.6c-3.79-9.92-8.24-24.9-7.46-40.31c0.28-5.62,1.15-9.08,3.48-11.94
		c2.55-3.12,5.63-4.05,18.41-8.96c4.01-1.54,7.19-2.79,8.96-3.48"/>
	<path class="st0" d="M208.47,496.41c12.59-2.12,28.26-4.53,35.35-4.98c6.32-0.4,11.14-0.48,17.91-1.99
		c8.27-1.84,20.34-7.25,24.53-9.45"/>
	<path class="st0" d="M247.37,454.06c8.19-0.14,16.09,2.07,27.22,4.15c3.49,0.65,7.77,2.99,11.68,5.28
		c1.08,0.63,4.39,2.69,9.08,7.39c3.22,3.22,3.85,6.19,6.76,10.34c5.71,8.12,7.37,15.87,10.7,31.35c1.09,5.09,1.67,6.05,1.76,9.04
		c0.33,10.25-3.24,19.64-4.5,22.31c-6.37,13.46-17.8,20.07-22.39,22.64c-13.53,7.58-25.75,7.43-44.29,7.22
		c-16.07-0.19-24.61-0.85-33.77-7.86c-6.51-4.99-12.83-12.03-14.75-15.03c-2.51-3.93-2.95-7.85-4.98-14.82
		c-3.1-10.63-2.09-17.22-1.49-23c0.42-4.13,1.2-9.93,5.97-20.15c3.72-7.97,5.64-12.04,8.71-16.17c1.96-2.64,5.96-7.96,12.19-12.19
		C225.65,457.5,235.04,454.28,247.37,454.06z"/>
</g>
</svg>
