<?xml version="1.0" encoding="utf-8"?>
<!-- Generator: Adobe Illustrator 26.2.0, SVG Export Plug-In . SVG Version: 6.00 Build 0)  -->
<svg version="1.1" id="Calque_1" xmlns="http://www.w3.org/2000/svg" xmlns:xlink="http://www.w3.org/1999/xlink" x="0px" y="0px"
	 viewBox="0 0 612 792" style="enable-background:new 0 0 612 792;" xml:space="preserve">
<style type="text/css">
	.st0{fill:none;stroke:#000000;stroke-width:3;stroke-miterlimit:10;}
</style>
<g>
	<path class="st0" d="M357.99,264.71c-6.95-0.46-46.02,1.67-58.17,4.77c-19.18,4.89-32.98,12.17-41.63,19.05
		c-12.07,9.6-29.62,25.56-39.32,50.63c-4.28,11.05-5.55,27.56-5.93,34.34"/>
	<path class="st0" d="M212.39,390.54"/>
	<path class="st0" d="M372.45,519.66c-12.11-2.15-86.75,20.18-129.12-24.21c-18.35-19.22-22.92-44.67-26.9-62"/>
	<path class="st0" d="M235.48,372.91c3.12-13.06,10.85-36.45,26-53.22c4.59-5.08,10.48-11.44,20.18-16.64
		c8.52-4.58,16.61-6.08,32.78-9.08c13.15-2.44,19.73-3.66,25.72-3.53c9.23,0.2,14.1,1.93,19.17-1.51c3.57-2.42,6.09-7.48,6.56-13.62
		c0.52-6.83-8.2-11.06-7.9-10.59"/>
	<path class="st0" d="M233.24,394.34"/>
	<path class="st0" d="M369.43,519.46c8.24,0.43,15.21-1.6,16.64-5.58c1.91-5.3-6.32-13.24-14.12-16.64
		c-7.75-3.39-12.21-1.05-29.76,0.5c-9.1,0.81-22.09,1.89-37.32,0c-13.98-1.73-22.68-5.08-26.23-6.56
		c-6.34-2.63-12.9-5.44-19.17-11.6c-1.34-1.32-5.85-5.92-11.6-18.66c-1.51-3.34-6.3-7.78-10.49-30.45"/>
	<path class="st0" d="M163.07,381.32c1.5-2.63,6.07-5.54,48.01-7.72c23.25-1.21,18.68-0.15,38.87-1.22
		c24.36-1.29,34.32-3,46.87,1.22c5.62,1.89,15.16,6.12,14.29,9.75c-1.09,4.56-18.06,6.07-27.44,6.91c-15.12,1.34-19.2-0.08-38.3,0
		c-9.46,0.04-24.14,0.1-42.3,2.03c-19.24,2.05-27.56,4.62-34.29,0.81C164.14,390.48,160.88,385.18,163.07,381.32z"/>
	<path class="st0" d="M162.99,419.11c4.14-3.87,10.65-2.29,36.01-3.44c17.29-0.78,16.64-1.63,33.15-2.15
		c17.59-0.55,15.57,0.5,31.44,0c22.81-0.71,30.01-3,37.15,1.29c3.62,2.17,7.83,6.39,6.86,10.73c-0.84,3.79-5.25,6.06-6.86,6.87
		c-10.97,5.5-26.3,2.05-30.86,1.29c-45.16-7.53-81.35,8.46-104.03,2.04C155.79,432.91,157.92,423.83,162.99,419.11z"/>
	<path class="st0" d="M211.17,414.92c-0.13-2.48-1.18-23.29-1.18-23.29"/>
	<path class="st0" d="M236.86,413.4c-0.34-2.65-2.43-19.12-2.76-21.77"/>
</g>
</svg>
