<?xml version="1.0" encoding="utf-8"?>
<!-- Generator: Adobe Illustrator 26.2.0, SVG Export Plug-In . SVG Version: 6.00 Build 0)  -->
<svg version="1.1" id="Calque_1" xmlns="http://www.w3.org/2000/svg" xmlns:xlink="http://www.w3.org/1999/xlink" x="0px" y="0px" viewBox="0 0 612 792" style="enable-background: new 0 0 612 792" xml:space="preserve">
<style>.st0 {
  fill: none;
  stroke: #fff;
  stroke-width: 15px;
  stroke-miterlimit: 10;
}

.st1 {
  fill: none;
  stroke: #fff;
  stroke-miterlimit: 10;
}

</style>
<path class="st0" d="M209.1,412.35c-9.09,1.09-14.87,8.42-18.7,13.27c-1.24,1.58-7.06,9.13-10.25,21.71
	c-1.69,6.65-4.18,16.46-1.21,27.75c0.57,2.16,7.12,25.38,29.67,31.68c13.01,3.64,29.8,1.22,39.69-9.97c9.4-10.62,8.31-24.35,7.24-38
	c-0.77-9.75-1.52-19.22-8.44-28.35c-8.68-11.44-21.48-14.99-28.35-16.89C213.27,412.04,210.63,412.17,209.1,412.35z"></path>
<path class="st0" d="M409.95,415.97c-10.7,2.87-16.47,10.81-18.7,13.87c-4.06,5.59-5.6,10.84-6.63,14.48
	c-2.43,8.56-2.05,15.55-1.81,19.3c0.27,4.25,0.62,9.16,3.02,15.08c0.9,2.23,2.55,6.22,6.03,10.25c1.61,1.87,7.99,9.05,18.7,10.86
	c11.15,1.88,19.81-3.28,22.32-4.83c15.02-9.26,19.66-28.66,18.09-42.82c-1.53-13.78-8.96-22.94-11.46-25.94
	c-2.87-3.44-6.2-7.34-12.06-9.65C419.61,413.49,412.48,415.29,409.95,415.97z"></path>
<path class="st0" d="M209.1,435.88c-2.95,1.18-4.49,3.91-6.03,6.63c-2.56,4.53-2.84,8.75-3.02,12.06c-0.25,4.66-0.5,9.28,2.41,13.27
	c1.31,1.79,2.78,2.81,4.83,4.22c2.47,1.71,5.83,4.03,9.05,4.22c6.67,0.4,14.52-8.22,15.37-17.44c0.77-8.36-4.47-14.31-5.72-15.73
	C222.56,439.22,215.11,433.46,209.1,435.88z"></path>
<path class="st0" d="M410.55,439.49c-5.29,3.46-6.2,10.09-6.63,13.27c-0.29,2.15-0.87,6.77,1.21,12.06
	c0.84,2.15,2.27,5.78,6.03,8.44c0.84,0.59,6.35,4.49,12.06,2.41c4.69-1.71,6.53-6.35,7.84-9.65c0.95-2.4,3.64-9.16,0.6-16.29
	c-3.33-7.81-12.41-13.44-18.7-11.46C411.89,438.63,411.14,439.11,410.55,439.49z"></path>
<path class="st0" d="M349.03,314.34c-5.71,5.72,1.1,8.73,0,41.62c-0.23,6.82-0.66,12.31,3.02,16.59c4.74,5.52,13.04,5.19,20.51,5.13
	c41.15-0.36,54.98,7.26,60.92-1.81c1.1-1.68,1.23-5.94,1.51-14.48c0.53-16.44,0.79-24.66-2.41-31.36
	c-4.71-9.85-13.58-16.19-21.41-17.49C394.25,309.73,360.59,302.75,349.03,314.34z"></path>
<path class="st0" d="M321.28,318.26c-0.86-3.3-5.62-3.52-12.36-5.43c-11.97-3.39-21.87-2.26-32.87-0.9
	c-14.25,1.76-24.47,5.03-30.46,7.24c-16.17,5.96-19.98,11.05-21.71,14.48c-1.02,2.03-2.39,4.59-2.41,9.95
	c-0.03,9.06-0.83,16.21,0.3,23.52c0,0,1.81,5.87,8.44,8.44c19.24,7.45,42.03,4.43,86.79,2.48c1.11-0.05,3.76-0.47,5.5-2.48
	c3.24-3.73,1.94-9.34,1.81-13.57C323.47,335.4,326.87,339.78,321.28,318.26z"></path>
<path class="st0" d="M431.66,301.67c-8.72-1.97-17.77-3.7-27.14-5.13c0,0-95.4-15.21-171.9,11.46c-9.51,3.32-13.47,5.45-17.19,8.75
	c-15.56,13.78-10.29,33.13-27.75,61.52c-5.56,9.05-8.66,11.25-10.56,12.36c-11.31,6.65-23.06,0.08-30.46,7.54
	c-0.7,0.7-2,2.18-4.22,9.65c-7.03,23.64-3.77,41.91-3.02,45.84c2.09,10.84,4.98,15.1,8.44,17.79c2.68,2.08,5.41,2.9,7.84,3.62
	c7.55,2.24,14.56,1.5,19.6,0.3"></path>
<path class="st0" d="M430.52,301.42c2.81,1.56,7.95,4.52,11.39,9c3.62,4.72,5.14,9.47,6.63,15.98c3.44,14.92,3.92,26.24,3.92,26.24
	c0.98,23.03-3.19,34.07,2.41,37.4c0.73,0.43,4.3,0.59,11.46,0.9c8.38,0.37,9.78,0.13,11.46,1.21c5.03,3.23,4.16,12.9,3.92,16.29
	c-2.09,29.09,11.36,44.13,3.51,51c-2.19,1.92-3.56,1.34-8.94,2.08c-6.28,0.86-9.82-0.4-19.6,0c-2.46,0.1-4.45,0.27-5.64,0.38"></path>
<path class="st0" d="M256.01,465.42"></path>
<path class="st0" d="M256.01,465.42c22.31-2.6,50.89-4.92,77.33-5.12c15.95-0.12,34.98,0.72,49.36,1.59"></path>
<path class="st0" d="M138.79,425.35c0.84-0.39,2.09-0.9,3.66-1.24c1.83-0.4,5.22-1.14,8.14,0.3c2.56,1.27,3.62,3.64,4.83,6.33
	c1.56,3.5,3.54,7.93,1.81,11.76c-1.95,4.33-11.5,7.09-18.43,5.99"></path>
<path class="st1" d="M191,453.97c-0.44-3.69-1.16-13.92,5.43-20.81c0.69-0.72,1.49-1.43,2.41-2.11"></path>
<path class="st1" d="M394.87,450.35c-0.18-2.77-0.1-6.82,1.21-11.46c0.92-3.25,2.18-5.88,3.32-7.84"></path>
<path class="st0" d="M480.33,413.17c7.09-0.55,12.97-0.6,17.37-0.49c2.99,0.07,5.24,0.2,6.94,1.81c1.61,1.52,2.05,3.75,1.81,9.95
	c-0.43,11.14-0.65,16.71-4.52,20.81c-1.43,1.51-3.45,4.1-6.63,4.22c-5.01,0.19-10.86-6.96-8.44-6.03"></path>
</svg>
