<?xml version="1.0" encoding="utf-8"?>
<!-- Generator: Adobe Illustrator 26.2.0, SVG Export Plug-In . SVG Version: 6.00 Build 0)  -->
<svg version="1.1" id="Calque_1" xmlns="http://www.w3.org/2000/svg" xmlns:xlink="http://www.w3.org/1999/xlink" x="0px" y="0px" viewBox="0 0 612 792" style="enable-background: new 0 0 612 792" xml:space="preserve">
<style>.st0 {
  fill: none;
  stroke: #fff;
  stroke-width: 15px;
  stroke-miterlimit: 10;
}

.st1 {
  stroke: #fff;
  stroke-miterlimit: 10;
}

.st2 {
  fill: #ee7064;
  stroke: #fff;
  stroke-miterlimit: 10;
}

.st3 {
  fill: none;
  stroke: #fff;
  stroke-miterlimit: 10;
}

</style>
<path class="st0" d="M170.38,341.77l143.92,50.01l-108.4,78.68c-9.79-35.45-19.57-70.91-29.36-106.36
	C174.49,356.66,172.43,349.22,170.38,341.77z"></path>
<path class="st0" d="M205.59,470.93l-33.62,107.12L205.59,470.93z"></path>
<ellipse transform="matrix(0.3504 -0.9366 0.9366 0.3504 -429.3694 536.3524)" class="st0" cx="171.97" cy="577.7" rx="22.06" ry="41.92"></ellipse>
<polygon class="st0" points="307.64,407.52 443.79,363.58 407.07,483.87 "></polygon>
<path class="st0" d="M407.1,484.39l35.41,99.29L407.1,484.39z"></path>
<ellipse transform="matrix(0.9586 -0.2847 0.2847 0.9586 -147.7953 150.0664)" class="st0" cx="442.31" cy="583.43" rx="39.36" ry="20.72"></ellipse>
<path class="st0" d="M175,364.8c-1.76,0.42-3.59,0.64-5.48,0.64c-13.07,0-23.66-10.59-23.66-23.66c0-13.07,10.59-23.66,23.66-23.66
	s23.66,10.59,23.66,23.66c0,2.62-0.43,5.14-1.21,7.5"></path>
<path class="st0" d="M421.89,368.68c-0.49-1.98-0.76-4.04-0.78-6.16c-0.14-14.72,11.71-26.76,26.47-26.9
	c14.75-0.14,26.83,11.68,26.96,26.4c0.14,14.72-11.71,26.76-26.47,26.9c-2.96,0.03-5.81-0.43-8.48-1.29"></path>
<line class="st0" x1="178.48" y1="371.13" x2="178.48" y2="371.13"></line>
<path class="st0" d="M307.64,396.62c-4.73,1.31-15.32,1.63-24.01,2.02c-6.32,0.29-10.95-0.16-19.72-1c-11.46-1.1-12.99-1.95-24.78-3
	c-0.66-0.06-5.41-0.37-14.92-1c-14.59-0.96-16.59-1.07-19.72-1c-4.16,0.1-10.16,0.51-17.45,2"></path>
<path class="st0" d="M312.79,411.48c3-0.52,12.54-2.17,18.32-1.82c6.01,0.36,7.18,1.37,15.02,2.25c4.82,0.54,8.59,0.61,16.15,0.75
	c5.49,0.1,7.27,0.01,13.52,0c7.38-0.01,17.59,0.33,21.78,0.38c6.99,0.08,19.6-0.75,32.6-4.88"></path>
<line class="st0" x1="225.07" y1="317.83" x2="201.05" y2="261.23"></line>
<line class="st0" x1="304.45" y1="308.36" x2="310.83" y2="221.17"></line>
<line class="st0" x1="375.71" y1="330.01" x2="421.11" y2="275.36"></line>
<circle class="st1" cx="442.44" cy="583.43" r="2.32"></circle>
<circle class="st1" cx="172.19" cy="577.43" r="2.34"></circle>
<path class="st2" d="M443,336.06"></path>
<line class="st2" x1="463.37" y1="383.94" x2="431.7" y2="341.03"></line>
<line class="st2" x1="451.2" y1="335.84" x2="443.79" y2="385.21"></line>
<polyline class="st3" points="474.54,365.01 447.83,362.49 467.87,344.66 "></polyline>
<line class="st3" x1="421.11" y1="357.94" x2="447.83" y2="362.49"></line>
<path class="st3" d="M187.79,326.74c0.52,0.69,0.52,0.69,0.52,0.69l-37.5,28.81"></path>
<path class="st3" d="M155.22,322.94c12.27,15.44,12.27,15.44,12.27,15.44"></path>
<path class="st3" d="M172.09,318.25c-1.72,23.52-1.72,23.52-1.72,23.52"></path>
<path class="st3" d="M145.86,339.36c24.52,2.41,24.52,2.41,24.52,2.41"></path>
<path class="st3" d="M167.49,363.58c2.88-21.8,2.02-21.7,2.02-21.7"></path>
</svg>
